
<svg xmlns="http://www.w3.org/2000/svg" version="1.1" xmlns:xlink="http://www.w3.org/1999/xlink" preserveAspectRatio="none" x="0px" y="0px" width="1024px" height="1024px" viewBox="0 0 1024 1024">
<defs>
<g id="Layer1_0_FILL">
<path fill="#FFFFFF" stroke="none" d="
M 582.65 582.7
Q 611.95 553.5 611.95 512 611.95 470.55 582.65 441.3 553.45 412 512 412 470.55 412 441.25 441.3 412 470.55 412 512 412 553.45 441.25 582.7 470.65 612 512 612 553.35 612 582.65 582.7
M 551.05 508.85
Q 553.95 510.7 553.95 514.1 553.95 517.5 551.05 519.35
L 489.8 557.75
Q 486.7 559.65 483.55 557.95 480.35 556.2 480.35 552.55
L 480.35 475.65
Q 480.35 472 483.55 470.25 486.75 468.45 489.8 470.4
L 551.05 508.85
M 854.2 266.7
Q 855.2 260.45 851.35 255.45 833.45 232.4 812.45 211.45 688 87 511.95 87 413.9 87 331.65 125.65 266.5 156.45 211.4 211.45 184.35 238.55 163.2 267.95 87 374.2 87 512 87 528.2 88.05 544 98.45 699.5 211.45 812.5 324.35 925.4 479.6 935.9 492.75 936.8 502.4 927.75 512 918.7 512 905.5
L 512 685
Q 512 673.8 504.65 665.25 497.35 656.75 486.2 654.9 442.45 647.55 409.4 614.5 378.75 583.85 370.3 544
L 370.25 544
Q 366.95 528.7 366.95 512 366.95 472.3 385.6 440.1 388.5 435.15 387.25 429.55 386 423.95 381.3 420.65
L 212.6 302.55
Q 207.4 298.9 206.45 292.65 205.5 286.4 209.4 281.4 224.8 261.75 243.2 243.25 286.65 199.9 336.9 173.45 342.5 170.5 348.5 172.55 354.5 174.55 357.2 180.3
L 444.4 367.5
Q 446.8 372.65 452.05 374.85 457.3 377.05 462.65 375.15 485.75 367 511.95 367 572 367 614.45 409.45 619.15 414.15 622.7 418.25 626.35 422.55 632 423.25 637.65 423.9 642.3 420.65
L 848.05 276.55
Q 853.25 272.9 854.2 266.7 Z"/>
</g>

<path id="Layer1_0_1_STROKES" stroke="#FFFFFF" stroke-width="60" stroke-linejoin="round" stroke-linecap="round" fill="none" d="
M 850.6 700.7
L 850.6 889.35
M 758.6 744.95
L 758.6 845.25
M 666.6 650.6
L 666.6 939.45
M 574.6 774.4
L 574.6 815.6"/>
</defs>

<g transform="matrix( 1, 0, 0, 1, 0,0) ">
<use xlink:href="#Layer1_0_FILL"/>

<use xlink:href="#Layer1_0_1_STROKES"/>
</g>
</svg>
